# Hierarchical Translation and Rotation (.htr) file
# Generated by EVaRT
[Header]
FileType htr
DataType HTRS
FileVersion 1
NumSegments 23
NumFrames 4
DataFrameRate 120
EulerRotationOrder ZYX
CalibrationUnits mm
RotationUnits Degrees
GlobalAxisofGravity Y
BoneLengthAxis Y
ScaleFactor 1
[SegmentNames&Hierarchy]
#CHILD            PARENT
DaveRoot          GLOBAL
Spine1            DaveRoot
Spine2            Spine1
Spine3            Spine2
Spine4            Spine3
Neck              Spine4
Head              Neck
LClavicle         Spine4
LUpperArm         LClavicle
LLowerArm         LUpperArm
LHand             LLowerArm
RClavicle         Spine4
RUpperArm         RClavicle
RLowerArm         RUpperArm
RHand             RLowerArm
RUpperLeg         DaveRoot
RLowerLeg         RUpperLeg
RFoot             RLowerLeg
RToes             RFoot
LUpperLeg         DaveRoot
LLowerLeg         LUpperLeg
LFoot             LLowerLeg
LToes             LFoot
[BasePosition]
#SegmentName      Tx   Ty   Tz   Rx   Ry   Rz   BoneLength
DaveRoot          30.502683	1014.050144	-392.030244	16.346492	-1.112010	-1.464339	100.000000
Spine1            0.000000	100.000000	0.000000	-16.708095	0.289044	-0.213389	100.000000
Spine2            0.000000	100.000000	0.000000	4.757952	0.249599	-0.116624	100.000000
Spine3            0.000000	100.000000	0.000000	11.084253	0.260929	-0.088411	100.000000
Spine4            0.000000	100.000000	0.000000	12.228282	1.332274	1.443083	100.000000
Neck              0.000000	100.000000	0.000000	10.147668	18.171820	1.381874	80.000000
Head              0.000000	80.000000	0.000000	-46.518491	-1.401195	-5.185409	200.000000
LClavicle         0.000000	100.000000	0.000000	-3.689620	-1.992124	-101.831237	200.000000
LUpperArm         0.000000	200.000000	0.000000	-0.284445	-3.207106	1.762499	300.000000
LLowerArm         0.000000	300.000000	0.000000	9.834184	2.175812	1.895763	200.000000
LHand             0.000000	200.000000	0.000000	-2.090742	-1.768569	8.793625	120.000000
RClavicle         0.000000	100.000000	0.000000	-0.558465	-3.870894	107.984856	200.000000
RUpperArm         0.000000	200.000000	0.000000	6.860362	-6.098052	-15.811317	300.000000
RLowerArm         0.000000	300.000000	0.000000	5.698581	-3.682026	-7.348670	200.000000
RHand             0.000000	200.000000	0.000000	-4.626921	6.468423	-3.971303	120.000000
RUpperLeg         -115.911102	-10.000000	31.058285	22.974686	25.481186	-170.503396	530.000000
RLowerLeg         0.000000	530.000000	0.000000	-7.725558	0.479387	-2.520024	460.000000
RFoot             0.000000	460.000000	0.000000	81.786251	-5.006629	-0.462861	130.000000
RToes             0.000000	130.000000	0.000000	20.181248	0.005479	-0.002881	100.000000
LUpperLeg         115.911102	-10.000000	31.058285	21.582405	10.065134	-177.228489	530.000000
LLowerLeg         0.000000	530.000000	0.000000	-4.243927	-3.275937	3.046484	460.000000
LFoot             0.000000	460.000000	0.000000	77.706358	-14.203819	16.055021	130.000000
LToes             0.000000	130.000000	0.000000	27.168776	-0.000000	-0.000086	100.000000
#Beginning of Data.
[DaveRoot]
#Fr	Tx	Ty	Tz	Rx	Ry	Rz	SF
514	-1084.352940	-345.096401	82.728153	48.280949	13.023788	-1.986180	1.000000	
515	-1084.592726	-338.435506	82.761380	48.438115	13.165791	-1.944646	1.000000	
516	-1084.754957	-331.788399	82.685410	48.562409	13.259500	-1.914977	1.000000	
517	-1084.861279	-325.165876	82.441028	48.656381	13.266599	-1.893022	1.000000	
[Spine1]
#Fr	Tx	Ty	Tz	Rx	Ry	Rz	SF
514	0.000000	0.000000	0.000000	5.558958	-1.029886	-0.892300	1.000000	
515	0.000000	0.000000	0.000000	5.558548	-1.024858	-0.839697	1.000000	
516	0.000000	0.000000	0.000000	5.576236	-1.021971	-0.785974	1.000000	
517	0.000000	0.000000	0.000000	5.580593	-0.997925	-0.752964	1.000000	
[Spine2]
#Fr	Tx	Ty	Tz	Rx	Ry	Rz	SF
514	0.000000	0.000000	0.000000	5.558958	-1.029886	-0.892300	1.000000	
515	0.000000	0.000000	0.000000	5.558548	-1.024858	-0.839697	1.000000	
516	0.000000	0.000000	0.000000	5.576236	-1.021971	-0.785974	1.000000	
517	0.000000	0.000000	0.000000	5.580593	-0.997925	-0.752964	1.000000	
[Spine3]
#Fr	Tx	Ty	Tz	Rx	Ry	Rz	SF
514	0.000000	0.000000	0.000000	5.558958	-1.029886	-0.892300	1.000000	
515	0.000000	0.000000	0.000000	5.558548	-1.024858	-0.839697	1.000000	
516	0.000000	0.000000	0.000000	5.576236	-1.021971	-0.785974	1.000000	
517	0.000000	0.000000	0.000000	5.580593	-0.997925	-0.752964	1.000000	
[Spine4]
#Fr	Tx	Ty	Tz	Rx	Ry	Rz	SF
514	0.000000	0.000000	0.000000	5.558958	-1.029886	-0.892300	1.000000	
515	0.000000	0.000000	0.000000	5.558548	-1.024858	-0.839697	1.000000	
516	0.000000	0.000000	0.000000	5.576236	-1.021971	-0.785974	1.000000	
517	0.000000	0.000000	0.000000	5.580593	-0.997925	-0.752964	1.000000	
[Neck]
#Fr	Tx	Ty	Tz	Rx	Ry	Rz	SF
514	0.000000	0.000000	0.000000	-30.481740	-3.455435	-6.982355	1.000000	
515	0.000000	0.000000	0.000000	-30.377982	-3.427963	-6.993521	1.000000	
516	0.000000	0.000000	0.000000	-30.243863	-3.447083	-7.020502	1.000000	
517	0.000000	0.000000	0.000000	-30.014406	-3.475693	-7.004971	1.000000	
[Head]
#Fr	Tx	Ty	Tz	Rx	Ry	Rz	SF
514	0.000000	0.000000	0.000000	-30.481740	-3.455435	-6.982355	1.000000	
515	0.000000	0.000000	0.000000	-30.377982	-3.427963	-6.993521	1.000000	
516	0.000000	0.000000	0.000000	-30.243863	-3.447083	-7.020502	1.000000	
517	0.000000	0.000000	0.000000	-30.014406	-3.475693	-7.004971	1.000000	
[LClavicle]
#Fr	Tx	Ty	Tz	Rx	Ry	Rz	SF
514	0.000000	0.000000	0.000000	25.574676	-7.729609	13.067884	1.000000	
515	0.000000	0.000000	0.000000	25.752154	-7.782637	13.050877	1.000000	
516	0.000000	0.000000	0.000000	25.551102	-7.668151	12.965544	1.000000	
517	0.000000	0.000000	0.000000	25.727348	-7.729490	12.966049	1.000000	
[LUpperArm]
#Fr	Tx	Ty	Tz	Rx	Ry	Rz	SF
514	0.000000	0.000000	0.000000	53.143673	-32.599991	-60.422687	1.000000	
515	0.000000	0.000000	0.000000	52.744153	-32.781805	-60.565676	1.000000	
516	0.000000	0.000000	0.000000	53.160733	-32.642643	-60.725541	1.000000	
517	0.000000	0.000000	0.000000	52.711854	-32.811068	-60.748248	1.000000	
[LLowerArm]
#Fr	Tx	Ty	Tz	Rx	Ry	Rz	SF
514	0.000000	0.000000	0.000000	20.839984	0.000000	0.000000	1.000000	
515	0.000000	0.000000	0.000000	21.775712	0.000000	0.000000	1.000000	
516	0.000000	0.000000	0.000000	21.569855	0.000000	0.000000	1.000000	
517	0.000000	0.000000	0.000000	22.308007	0.000000	0.000000	1.000000	
[LHand]
#Fr	Tx	Ty	Tz	Rx	Ry	Rz	SF
514	0.000000	0.000000	0.000000	9.241554	-0.000000	-0.000000	1.000000	
515	0.000000	0.000000	0.000000	8.663583	-0.000000	-0.000000	1.000000	
516	0.000000	0.000000	0.000000	8.928924	-0.000000	-0.000000	1.000000	
517	0.000000	0.000000	0.000000	8.535359	-0.000000	-0.000000	1.000000	
[RClavicle]
#Fr	Tx	Ty	Tz	Rx	Ry	Rz	SF
514	0.000000	0.000000	0.000000	12.954588	1.224218	-5.492343	1.000000	
515	0.000000	0.000000	0.000000	13.033308	1.195868	-5.337928	1.000000	
516	0.000000	0.000000	0.000000	13.026722	1.169864	-5.229122	1.000000	
517	0.000000	0.000000	0.000000	13.067401	1.162580	-5.181818	1.000000	
[RUpperArm]
#Fr	Tx	Ty	Tz	Rx	Ry	Rz	SF
514	0.000000	0.000000	0.000000	97.041250	67.307213	64.039469	1.000000	
515	0.000000	0.000000	0.000000	97.193619	67.388917	64.285723	1.000000	
516	0.000000	0.000000	0.000000	97.675443	67.390849	64.714739	1.000000	
517	0.000000	0.000000	0.000000	97.811479	67.443472	64.914729	1.000000	
[RLowerArm]
#Fr	Tx	Ty	Tz	Rx	Ry	Rz	SF
514	0.000000	0.000000	0.000000	41.084711	0.000000	0.000000	1.000000	
515	0.000000	0.000000	0.000000	41.269085	0.000000	0.000000	1.000000	
516	0.000000	0.000000	0.000000	41.301000	0.000000	0.000000	1.000000	
517	0.000000	0.000000	0.000000	41.331145	0.000000	0.000000	1.000000	
[RHand]
#Fr	Tx	Ty	Tz	Rx	Ry	Rz	SF
514	0.000000	0.000000	0.000000	20.565436	30.610195	-2.275084	1.000000	
515	0.000000	0.000000	0.000000	20.737098	30.511891	-2.224477	1.000000	
516	0.000000	0.000000	0.000000	20.975621	30.421346	-2.073258	1.000000	
517	0.000000	0.000000	0.000000	21.154480	30.438454	-1.851633	1.000000	
[RUpperLeg]
#Fr	Tx	Ty	Tz	Rx	Ry	Rz	SF
514	0.000000	0.000000	0.000000	101.664428	2.272534	24.736167	1.000000	
515	0.000000	0.000000	0.000000	101.179108	2.419967	25.035228	1.000000	
516	0.000000	0.000000	0.000000	100.672872	2.549862	25.351703	1.000000	
517	0.000000	0.000000	0.000000	100.147681	2.609734	25.635261	1.000000	
[RLowerLeg]
#Fr	Tx	Ty	Tz	Rx	Ry	Rz	SF
514	0.000000	0.000000	0.000000	-87.122969	-0.000000	0.000000	1.000000	
515	0.000000	0.000000	0.000000	-86.107952	0.000000	0.000000	1.000000	
516	0.000000	0.000000	0.000000	-85.089917	-0.000000	0.000000	1.000000	
517	0.000000	0.000000	0.000000	-84.059670	0.000000	0.000000	1.000000	
[RFoot]
#Fr	Tx	Ty	Tz	Rx	Ry	Rz	SF
514	0.000000	0.000000	0.000000	24.630380	13.430572	-12.088874	1.000000	
515	0.000000	0.000000	0.000000	23.953527	12.481233	-12.564999	1.000000	
516	0.000000	0.000000	0.000000	23.400893	11.772058	-12.858021	1.000000	
517	0.000000	0.000000	0.000000	22.956058	11.323650	-12.967401	1.000000	
[RToes]
#Fr	Tx	Ty	Tz	Rx	Ry	Rz	SF
514	0.000000	0.000000	0.000000	-14.354633	-0.000000	0.000000	1.000000	
515	0.000000	0.000000	0.000000	-13.198013	-0.000000	0.000000	1.000000	
516	0.000000	0.000000	0.000000	-12.465720	0.000000	0.000000	1.000000	
517	0.000000	0.000000	0.000000	-12.175110	-0.000000	0.000000	1.000000	
[LUpperLeg]
#Fr	Tx	Ty	Tz	Rx	Ry	Rz	SF
514	0.000000	0.000000	0.000000	116.317987	-37.661280	-20.615608	1.000000	
515	0.000000	0.000000	0.000000	115.940162	-37.415609	-20.953479	1.000000	
516	0.000000	0.000000	0.000000	115.556061	-37.228555	-21.311874	1.000000	
517	0.000000	0.000000	0.000000	115.174488	-37.126155	-21.703527	1.000000	
[LLowerLeg]
#Fr	Tx	Ty	Tz	Rx	Ry	Rz	SF
514	0.000000	0.000000	0.000000	-84.769093	-0.000000	-0.000000	1.000000	
515	0.000000	0.000000	0.000000	-83.683272	-0.000000	-0.000000	1.000000	
516	0.000000	0.000000	0.000000	-82.599076	-0.000000	-0.000000	1.000000	
517	0.000000	0.000000	0.000000	-81.514029	-0.000000	-0.000000	1.000000	
[LFoot]
#Fr	Tx	Ty	Tz	Rx	Ry	Rz	SF
514	0.000000	0.000000	0.000000	26.111011	8.936010	-23.610156	1.000000	
515	0.000000	0.000000	0.000000	25.630493	9.503448	-23.490828	1.000000	
516	0.000000	0.000000	0.000000	25.162261	10.051764	-23.413953	1.000000	
517	0.000000	0.000000	0.000000	24.726832	10.531026	-23.385153	1.000000	
[LToes]
#Fr	Tx	Ty	Tz	Rx	Ry	Rz	SF
514	0.000000	0.000000	0.000000	-0.597331	0.000000	-0.000000	1.000000	
515	0.000000	0.000000	0.000000	-0.250619	0.000000	-0.000000	1.000000	
516	0.000000	0.000000	0.000000	0.038732	0.000000	-0.000000	1.000000	
517	0.000000	0.000000	0.000000	0.265041	0.000000	-0.000000	1.000000	
